<?xml version="1.0" standalone="no"?>
<!DOCTYPE svg PUBLIC "-//W3C//DTD SVG 20010904//EN"
 "http://www.w3.org/TR/2001/REC-SVG-20010904/DTD/svg10.dtd">
<svg version="1.0" xmlns="http://www.w3.org/2000/svg"
 width="784.000000pt" height="771.000000pt" viewBox="0 0 784.000000 771.000000"
 preserveAspectRatio="xMidYMid meet">

<g transform="translate(0.000000,771.000000) scale(0.100000,-0.100000)"
fill="#000000" stroke="none">
<path d="M3995 7496 c-33 -8 -116 -40 -185 -71 -239 -108 -271 -118 -395 -118
-70 -1 -161 8 -249 22 -186 31 -306 27 -386 -14 -73 -37 -113 -69 -254 -203
-186 -179 -244 -209 -481 -252 -330 -60 -383 -101 -541 -412 -91 -179 -103
-198 -173 -268 -53 -53 -109 -94 -186 -139 -261 -151 -320 -209 -360 -350 -18
-62 -22 -92 -40 -258 -16 -156 -35 -245 -67 -307 -22 -44 -86 -129 -198 -266
-159 -194 -175 -299 -93 -613 32 -122 37 -158 37 -257 1 -112 0 -119 -43 -235
-80 -219 -93 -273 -94 -365 -1 -115 21 -168 149 -357 174 -257 179 -272 189
-583 3 -102 10 -205 15 -229 30 -127 110 -218 321 -364 200 -138 248 -201 337
-439 118 -313 177 -364 526 -459 138 -38 245 -87 312 -144 29 -25 94 -94 145
-153 115 -134 186 -197 269 -236 60 -28 73 -30 180 -31 63 0 181 4 261 9 179
11 242 -2 387 -77 309 -159 322 -165 390 -177 85 -14 175 4 302 60 47 21 121
54 165 73 168 75 246 82 504 41 318 -50 388 -29 612 182 236 221 258 233 533
289 98 19 204 46 238 60 122 50 187 129 301 365 111 230 155 277 410 428 143
84 224 152 262 217 31 52 60 166 69 265 30 332 50 381 259 637 49 59 103 137
120 173 31 62 32 69 31 185 0 107 -5 136 -39 265 -35 129 -39 158 -39 265 l-1
120 62 178 c75 215 91 309 69 397 -21 81 -43 123 -151 280 -149 219 -174 285
-175 465 -1 167 -18 338 -39 394 -40 106 -91 154 -366 351 -84 60 -152 130
-190 195 -14 23 -48 102 -76 176 -128 336 -177 382 -494 473 -273 79 -328 113
-499 310 -106 122 -184 194 -246 226 -77 41 -204 49 -446 30 -214 -17 -282 1
-541 148 -66 37 -145 76 -175 86 -72 24 -160 28 -233 12z m625 -2423 c25 -11
53 -29 63 -41 44 -49 46 -75 47 -539 l0 -443 510 0 510 0 0 509 c0 477 1 510
18 515 52 15 156 27 233 27 147 0 222 -32 267 -116 16 -27 17 -134 20 -1217
l2 -1186 -52 -12 c-29 -7 -103 -15 -164 -17 -135 -6 -210 11 -260 61 -56 56
-57 70 -61 554 l-4 442 -510 0 -509 0 0 -514 0 -515 -57 -13 c-32 -7 -116 -13
-188 -13 -117 0 -135 2 -178 24 -30 15 -58 39 -75 64 l-27 41 0 1195 0 1195
40 9 c131 28 301 23 375 -10z m-2567 -13 c83 -39 140 -116 286 -387 270 -499
408 -747 419 -751 17 -5 192 340 499 989 58 121 62 126 103 143 73 29 189 42
253 27 141 -31 213 -134 186 -264 -26 -117 -278 -575 -606 -1099 l-173 -276 0
-430 0 -430 -52 -14 c-31 -7 -107 -13 -183 -13 -120 0 -134 2 -180 26 -36 18
-57 38 -75 70 l-25 44 -3 373 -3 374 -108 161 c-182 273 -392 616 -541 882
-87 155 -220 422 -220 440 0 22 91 109 135 130 62 29 94 35 171 31 45 -3 87
-12 117 -26z"/>
</g>
</svg>
